# xmcd
#
# Track frame offsets:
#	150
#	15771
#	28828
#	40555
#	58629
#	76665
#	94822
#	108820
#	124295
#	138620
#	150696
#	163978
#	176187
#
# Disc length: 2409 seconds
# Revision: 1
# Processed by: cddbd v1.5.2PL0 Copyright (c) Steve Scherf et al.
# Submitted via: dBpowerAMP V12.0
#
DISCID=9f09670d
DTITLE=Warren H. Williams - Looking Out
DYEAR=2009
DGENRE=Country
TTITLE0=Been Away
TTITLE1=Drift Away
TTITLE2=Boulevard
TTITLE3=Dusty Ballerina
TTITLE4=Family
TTITLE5=Forever in My Arms
TTITLE6=Tell Her You Love Her
TTITLE7=Great Southern Land
TTITLE8=Looking Out
TTITLE9=Turn Your Radio On
TTITLE10=She's My Everything
TTITLE11=You Are the Place
TTITLE12=Jealous
EXTD=
EXTT0=
EXTT1=
EXTT2=
EXTT3=
EXTT4=
EXTT5=
EXTT6=
EXTT7=
EXTT8=
EXTT9=
EXTT10=
EXTT11=
EXTT12=
PLAYORDER=
